<?xml version="1.0" encoding="utf-8"?>
<!-- Generator: Adobe Illustrator 23.0.6, SVG Export Plug-In . SVG Version: 6.00 Build 0)  -->
<svg version="1.1" id="Layer_1" xmlns="http://www.w3.org/2000/svg" xmlns:xlink="http://www.w3.org/1999/xlink" x="0px" y="0px"
	 viewBox="0 0 1500 1500" style="enable-background:new 0 0 1500 1500;" xml:space="preserve">
<style type="text/css">
	.st0{opacity:0.96;fill:#26B34B;}
	.st1{opacity:0.96;fill:#EE8422;}
	.st2{opacity:0.96;fill:none;stroke:#000000;stroke-width:10;stroke-miterlimit:10;stroke-opacity:0.96;}
	.st3{opacity:0.96;fill:none;stroke:#000000;stroke-width:7;stroke-miterlimit:10;stroke-opacity:0.96;}
	.st4{opacity:0.96;fill:#EDAB74;}
</style>
<path class="st0" d="M553.53,230.84c30.9-34.37,97.57-41.57,163.26,74.29S483.17,309.1,553.53,230.84z"/>
<path class="st1" d="M1163.14,866.38c0,268.38-208.02,485.95-464.63,485.95s-464.63-217.57-464.63-485.95
	S441.9,380.43,698.51,380.43c15.65,0,31.12,0.81,46.37,2.39C979.71,407.16,1163.14,614.36,1163.14,866.38z"/>
<ellipse class="st2" cx="688.66" cy="866.38" rx="482.39" ry="496.25"/>
<path class="st3" d="M765.35,915.26c-0.23,43.57-34.76,78.7-77.11,78.46c-42.35-0.24-76.5-35.75-76.27-79.33"/>
<path class="st3" d="M734.82,731.93c0-43.57,34.34-78.9,76.69-78.9s76.69,35.32,76.69,78.9"/>
<path class="st3" d="M432.83,731.93c0-43.57,34.34-78.9,76.69-78.9s76.69,35.32,76.69,78.9"/>
<path class="st2" d="M744.87,373.46c0,0-41.65-140.61,74.92-183.22"/>
<path class="st2" d="M535.29,226.98c33.93-36.53,107.43-43.9,180.4,80.04S458.03,310.15,535.29,226.98z"/>
<ellipse class="st1" cx="497.98" cy="851.68" rx="44.76" ry="46.05"/>
<ellipse class="st1" cx="848.13" cy="876.72" rx="36.62" ry="37.67"/>
<ellipse class="st4" cx="509.52" cy="876.72" rx="36.62" ry="37.67"/>
<ellipse class="st4" cx="819.8" cy="876.72" rx="36.62" ry="37.67"/>
</svg>
